<svg width="48" height="48" viewBox="0 0 48 48" fill="none" xmlns="http://www.w3.org/2000/svg">
<path d="M47.0891 14.9722L25.1517 0.347171C24.4029 -0.113612 23.6038 -0.117831 22.8481 0.347171L0.910686 14.9722C0.348187 15.3471 0 16.0169 0 16.6864V31.3114C0 31.9811 0.348187 32.6507 0.910779 33.0257L22.8482 47.6528C23.597 48.1136 24.3961 48.1178 25.1518 47.6528L47.0892 33.0257C47.6517 32.6508 48 31.9811 48 31.3114V16.6864C47.9999 16.0169 47.6517 15.3471 47.0891 14.9722ZM26.0625 5.91847L42.2142 16.6864L35.0089 21.5079L26.0625 15.5346V5.91847ZM21.9375 5.91847V15.5346L12.991 21.5079L5.78568 16.6864L21.9375 5.91847ZM4.12499 20.5436L9.29464 23.999L4.12499 27.4543V20.5436ZM21.9375 42.0795L5.78568 31.3115L12.991 26.49L21.9375 32.4633V42.0795ZM24 28.874L16.7142 23.999L24 19.124L31.2857 23.999L24 28.874ZM26.0625 42.0795V32.4633L35.0089 26.49L42.2142 31.3115L26.0625 42.0795ZM43.8749 27.4543L38.7053 23.999L43.8749 20.5436V27.4543Z" fill="#27AE60"/>
</svg>
