<svg width="48" height="48" viewBox="0 0 48 48" fill="none" xmlns="http://www.w3.org/2000/svg">
<path d="M12.87 18.8882C12.4543 18.5775 12.0375 18.4221 11.6218 18.4221H9.75321V29.6154H11.6229C12.0386 29.6154 12.4554 29.46 12.8711 29.1493C13.2868 28.8386 13.4946 28.3725 13.4946 27.75V20.2875C13.4936 19.6661 13.2846 19.1989 12.87 18.8882ZM43.2964 0H4.70357C2.11071 0 0.00642857 2.09893 0 4.69286V43.3071C0.00642857 45.9011 2.11071 48 4.70357 48H43.2964C45.8904 48 47.9936 45.9011 48 43.3071V4.69286C47.9936 2.09893 45.8893 0 43.2964 0ZM16.5214 27.7704C16.5214 29.7857 15.2775 32.8393 11.34 32.8329H6.36857V15.105H11.445C15.2421 15.105 16.5193 18.1543 16.5204 20.1707L16.5214 27.7704ZM27.3086 18.2711H21.6V22.3875H25.0896V25.5557H21.6V29.6711H27.3096V32.8393H20.6475C19.4518 32.8704 18.4575 31.9254 18.4275 30.7296V17.325C18.3986 16.1304 19.3446 15.1382 20.5393 15.1082H27.3096L27.3086 18.2711ZM38.4129 30.6236C36.9986 33.9182 34.4646 33.2625 33.33 30.6236L29.2018 15.1093H32.6914L35.8746 27.2936L39.0429 15.1093H42.5336L38.4129 30.6236Z" fill="#27AE60"/>
</svg>
