<svg width="48" height="48" viewBox="0 0 48 48" fill="none" xmlns="http://www.w3.org/2000/svg">
<path d="M46.9686 22.5L42.5858 13.8214C42.6795 13.6072 42.7499 13.3661 42.7499 13.0982C42.7499 12.2946 42.164 11.625 41.4608 11.5982L36.6092 2.00889C36.6561 1.84819 36.7029 1.68749 36.7029 1.52679C36.7029 0.669697 36.0936 0 35.367 0C34.9452 0 34.5936 0.214299 34.3357 0.562498H25.0078C24.7734 0.214399 24.4218 0.00010004 24 0.00010004C23.5781 0.00010004 23.2265 0.214399 22.9921 0.562598H13.711C13.4531 0.214399 13.1016 0.00010004 12.6797 0.00010004C11.9532 0.00010004 11.3438 0.669697 11.3438 1.52689C11.3438 1.68759 11.3907 1.87509 11.4376 2.00899L6.53909 11.7323C6.07045 11.9733 5.74224 12.4822 5.74224 13.0983C5.74224 13.1518 5.76569 13.2054 5.76569 13.259L1.10162 22.4733C0.468822 22.6072 0 23.2233 0 23.9733C0 24.6965 0.445285 25.3126 1.05472 25.4733L5.88285 35.0091C5.83595 35.1698 5.8125 35.3036 5.8125 35.4911C5.8125 36.2143 6.25778 36.8304 6.86722 36.9643L11.3907 45.9375C11.3438 46.0982 11.297 46.2857 11.297 46.4732C11.297 47.3303 11.9063 48 12.6329 48C13.0547 48 13.4063 47.7857 13.6407 47.4643H22.9922C23.2265 47.7856 23.6016 47.9999 24 47.9999C24.3983 47.9999 24.7734 47.7856 25.0078 47.4642H34.3827C34.6171 47.7588 34.9686 47.9463 35.3436 47.9463C36.0936 47.9463 36.6796 47.2499 36.6796 46.4195C36.6796 46.2588 36.6562 46.1249 36.6093 45.991L41.1328 36.9642C41.7421 36.8303 42.1875 36.2142 42.1875 35.4911C42.1875 35.3304 42.164 35.1697 42.1171 35.009L46.9218 25.4732C47.5312 25.3393 48 24.7232 48 23.9732C47.9998 23.25 47.5545 22.6339 46.9686 22.5ZM12.2343 43.4731L8.41412 35.8928H12.2343V43.4731ZM12.2343 35.0893H8.41412C8.39067 34.9822 8.34377 34.8751 8.29696 34.7679L12.2343 30.0269V35.0893ZM12.2343 28.8482L7.82814 34.1786C7.71098 34.125 7.59373 34.0446 7.47656 34.0179L2.60171 24.375C2.64852 24.2411 2.64852 24.1071 2.64852 23.9732C2.64852 23.8393 2.64852 23.7322 2.62507 23.625L7.17198 14.625C7.40639 14.5982 7.64071 14.5178 7.85167 14.3571L12.2344 19.5536L12.2343 28.8482ZM12.2343 18.616L8.22661 13.875C8.34377 13.6607 8.41412 13.3929 8.41412 13.0983C8.41412 13.0715 8.39067 13.0179 8.39067 12.9911L12.2343 11.4108V18.616ZM12.2343 10.5536L8.41412 12.1339L12.2343 4.58038V10.5536ZM40.8046 14.4643L40.8749 14.5982L37.7811 31.3125L32.203 24.5893L40.7811 14.4375L40.8046 14.4643ZM24.3281 33.9107L25.3359 35.0893H23.3437L24.3281 33.9107ZM24.3046 32.7857L17.0157 24.2411L23.9765 15.8036L31.2421 24.5625L24.3046 32.7857ZM24.7734 33.375L31.7108 25.1518L37.6171 32.2768L37.1015 35.0893H26.2499L24.7734 33.375ZM34.7108 2.83939C34.8046 2.89299 34.8983 2.94659 35.0155 2.97339L40.078 13.0447V13.0983C40.078 13.3929 40.1482 13.6607 40.2655 13.875L31.7343 24L24.4688 15.2411L34.7108 2.83939ZM33.914 2.62509L23.9765 14.6518L18.9843 8.62506L33.5389 2.62509H33.914ZM23.1093 2.62509C23.3436 2.89289 23.6483 3.05359 24 3.05359C24.3516 3.05359 24.6562 2.89289 24.8906 2.62509H31.4531L18.4688 7.98217L14.0157 2.62509H23.1093ZM12.9376 3.18759L13.0313 2.97339C13.1104 2.95029 13.1886 2.92347 13.2657 2.89299L17.7423 8.27697L12.9376 10.2591V3.18759ZM12.9376 11.1162L18.2578 8.91976L23.4843 15.2411L16.5235 23.6518L12.9376 19.4465V11.1162ZM12.9376 20.3839L16.125 24.1607L12.9376 27.9911V20.3839ZM12.9376 29.1697L16.6172 24.7233L23.8593 33.3215L22.3593 35.0893H12.9376V29.1697ZM13.5469 45.3749C13.4063 45.2142 13.2423 45.1071 13.0313 45.0267L12.9376 44.866V35.8928H21.6796L13.6641 45.3749H13.5469ZM24.9141 45.3749C24.6796 45.1339 24.3516 44.9464 24 44.9464C23.6483 44.9464 23.3203 45.1339 23.0858 45.3749H14.6484L22.6639 35.8928H26.0155L34.0311 45.3749H24.9141ZM35.414 44.1963L35.039 44.9463C34.9218 44.9731 34.8281 45.0266 34.7343 45.0802L26.9297 35.8927H36.9375L35.414 44.1963ZM36.5389 41.9731L37.664 35.8928H39.5858L36.5389 41.9731ZM39.5858 35.0893H37.8046L38.203 32.9733L39.703 34.7947C39.6561 34.875 39.6092 34.9821 39.5858 35.0893ZM45.3748 24.3482L40.5233 34.0179C40.4061 34.0714 40.2888 34.125 40.1717 34.2053L38.367 32.0089L41.3905 15.6161L45.3982 23.5447C45.3748 23.6786 45.3279 23.8125 45.3279 23.9732C45.3279 24.1071 45.3514 24.2143 45.3748 24.3482Z" fill="#27AE60"/>
</svg>
